<svg xmlns="http://www.w3.org/2000/svg" viewBox="0 0 64 64" role="img" aria-labelledby="lima-logo-title lima-logo-description">
  <title id="lima-logo-title">砺码 · LIMA</title>
  <desc id="lima-logo-description">盾牌中的流程节点汇聚到人工智能核心并输出安全结论</desc>
  <defs>
    <linearGradient id="lima-surface" x1="10" y1="7" x2="55" y2="58" gradientUnits="userSpaceOnUse">
      <stop stop-color="#4978F5"/>
      <stop offset="0.52" stop-color="#2B5AD8"/>
      <stop offset="1" stop-color="#173B96"/>
    </linearGradient>
    <linearGradient id="lima-core" x1="28" y1="27" x2="39" y2="39" gradientUnits="userSpaceOnUse">
      <stop stop-color="#8AF0D5"/>
      <stop offset="1" stop-color="#38CDB0"/>
    </linearGradient>
    <filter id="lima-depth" x="-20%" y="-20%" width="140%" height="150%" color-interpolation-filters="sRGB">
      <feDropShadow dx="0" dy="4" stdDeviation="4" flood-color="#102B73" flood-opacity="0.28"/>
    </filter>
  </defs>
  <rect x="3" y="3" width="58" height="58" rx="17" fill="url(#lima-surface)" stroke="#FFFFFF" stroke-opacity="0.48" stroke-width="1.5" filter="url(#lima-depth)"/>
  <path d="M32 11.5 49 17.8v11.7c0 10.7-6.5 18.5-17 23.5-10.5-5-17-12.8-17-23.5V17.8L32 11.5Z" fill="#FFFFFF" fill-opacity="0.07" stroke="#FFFFFF" stroke-width="2.8" stroke-linejoin="round"/>
  <path d="M21.5 24.5h4.2l5 5M21.5 39.5h4.2l5-5M37.2 32h7.3" fill="none" stroke="#FFFFFF" stroke-width="2.7" stroke-linecap="round" stroke-linejoin="round"/>
  <circle cx="20" cy="24.5" r="2.7" fill="#FFFFFF"/>
  <circle cx="20" cy="39.5" r="2.7" fill="#FFFFFF"/>
  <path d="m32 26.4 5.6 5.6-5.6 5.6-5.6-5.6 5.6-5.6Z" fill="url(#lima-core)" stroke="#FFFFFF" stroke-width="1.7" stroke-linejoin="round"/>
  <circle cx="32" cy="32" r="1.7" fill="#173B96"/>
  <path d="m42 28.7 4.5 3.3-4.5 3.3" fill="none" stroke="#FFFFFF" stroke-width="2.7" stroke-linecap="round" stroke-linejoin="round"/>
</svg>
